<mxfile host="65bd71144e">
    <diagram id="hsrXLZq0cFEKuyeqXUaL" name="Page-1">
        <mxGraphModel dx="1674" dy="563" grid="1" gridSize="10" guides="1" tooltips="1" connect="1" arrows="1" fold="1" page="1" pageScale="1" pageWidth="850" pageHeight="1100" background="light-dark(#000000,#000000)" math="0" shadow="0">
            <root>
                <mxCell id="0"/>
                <mxCell id="1" parent="0"/>
                <mxCell id="7" value="" style="edgeStyle=none;html=1;" edge="1" parent="1" source="2" target="5">
                    <mxGeometry relative="1" as="geometry"/>
                </mxCell>
                <mxCell id="2" value="A" style="shape=ext;double=1;rounded=0;whiteSpace=wrap;html=1;fillColor=light-dark(#FFFFFF,#000000);fillStyle=solid;gradientColor=none;" vertex="1" parent="1">
                    <mxGeometry x="100" y="200" width="120" height="90" as="geometry"/>
                </mxCell>
                <mxCell id="11" value="" style="edgeStyle=none;html=1;" edge="1" parent="1" source="5" target="6">
                    <mxGeometry relative="1" as="geometry"/>
                </mxCell>
                <mxCell id="5" value="B" style="shape=ext;double=1;rounded=0;whiteSpace=wrap;html=1;fillColor=light-dark(#FFFFFF,#000000);fillStyle=solid;gradientColor=none;" vertex="1" parent="1">
                    <mxGeometry x="320" y="200" width="120" height="90" as="geometry"/>
                </mxCell>
                <mxCell id="6" value="C" style="shape=ext;double=1;rounded=0;whiteSpace=wrap;html=1;fillColor=light-dark(#FFFFFF,#000000);fillStyle=solid;gradientColor=none;" vertex="1" parent="1">
                    <mxGeometry x="540" y="200" width="120" height="90" as="geometry"/>
                </mxCell>
                <mxCell id="12" value="ptr" style="text;html=1;align=center;verticalAlign=middle;resizable=0;points=[];autosize=1;strokeColor=none;fillColor=none;" vertex="1" parent="1">
                    <mxGeometry x="-30" y="150" width="40" height="30" as="geometry"/>
                </mxCell>
                <mxCell id="13" value="after" style="text;html=1;align=center;verticalAlign=middle;resizable=0;points=[];autosize=1;strokeColor=none;fillColor=none;" vertex="1" parent="1">
                    <mxGeometry x="120" y="138" width="50" height="30" as="geometry"/>
                </mxCell>
                <mxCell id="16" value="NULL" style="ellipse;whiteSpace=wrap;html=1;" vertex="1" parent="1">
                    <mxGeometry x="-40" y="205" width="80" height="80" as="geometry"/>
                </mxCell>
            </root>
        </mxGraphModel>
    </diagram>
</mxfile>
